<svg data-v-0dd9719b="" version="1.0" xmlns="http://www.w3.org/2000/svg" xmlns:xlink="http://www.w3.org/1999/xlink" width="100%" height="100%" viewBox="0 0 340.000000 250.000000" preserveAspectRatio="xMidYMid meet" color-interpolation-filters="sRGB" style="margin: auto;"> <rect data-v-0dd9719b="" x="0" y="0" width="100%" height="100%" fill="#fff" fill-opacity="1" class="background"></rect> <rect data-v-0dd9719b="" x="0" y="0" width="100%" height="100%" fill="url(#watermark)" fill-opacity="1" class="watermarklayer"></rect> <g data-v-0dd9719b="" fill="#333" class="icon-text-wrapper icon-svg-group iconsvg" transform="translate(49.194557189941406,96.4451904296875)"><g class="iconsvg-imagesvg" transform="translate(0,0.7796001434326172)"><g><rect fill="#333" fill-opacity="0" stroke-width="2" x="0" y="0" width="60" height="55.55041199888899" class="image-rect"></rect> <svg x="0" y="0" width="60" height="55.55041199888899" filtersec="colorsb8223657303" class="image-svg-svg primary" style="overflow: visible;"><svg xmlns="http://www.w3.org/2000/svg" viewBox="-0.0007512220763601363 -0.020176559686660767 108.02130126953125 100.01036071777344"><path d="M78.83 62.9l-9 5.2a30.85 30.85 0 0 1-31.59 0L16.6 55.61a2.53 2.53 0 0 0-3.77 2.53 18.14 18.14 0 0 0 2.25 6.75 18.94 18.94 0 0 0 7 6.92l11.21 6.47 11.19 6.46a18.58 18.58 0 0 0 19 0l11.18-6.46 21.72-12.52a2.54 2.54 0 0 1 3.46.92l3.78 6.54a2.44 2.44 0 0 1 .26 1.92 2.48 2.48 0 0 1-1.18 1.54L81 89.18l-11.17 6.46a30.85 30.85 0 0 1-31.59 0L27 89.18l-11.2-6.47a31.49 31.49 0 0 1-11.63-11.5A31.42 31.42 0 0 1 0 55.35V35.87a2.48 2.48 0 0 1 1.26-2.19 2.49 2.49 0 0 1 2.53 0l40.73 23.51a18.52 18.52 0 0 0 19 0l9-5.2a2.52 2.52 0 0 1 3.45.93l3.76 6.53a2.53 2.53 0 0 1-.93 3.45" fill="#ffc947"></path><path d="M29.22 37.1l9-5.21a30.85 30.85 0 0 1 31.59 0l21.64 12.5a2.53 2.53 0 0 0 3.78-2.53A18.5 18.5 0 0 0 93 35.11a19 19 0 0 0-7-6.92L63.54 15.26a18.58 18.58 0 0 0-19 0l-32.87 19a2.52 2.52 0 0 1-3.45-.93l-3.78-6.55a2.54 2.54 0 0 1 .93-3.45l32.87-19a30.85 30.85 0 0 1 31.59 0l22.39 12.96a31.39 31.39 0 0 1 11.63 11.5 31.42 31.42 0 0 1 4.17 15.83v19.51a2.53 2.53 0 0 1-3.79 2.19L63.54 42.81a18.52 18.52 0 0 0-19 0l-9 5.2a2.54 2.54 0 0 1-3.46-.93l-3.78-6.53a2.53 2.53 0 0 1 .92-3.45" fill="#185adb"></path></svg></svg> <!----></g></g> <g transform="translate(67.00000381469727,0)"><g data-gra="path-name" fill-rule="" class="tp-name iconsvg-namesvg" transform="translate(0,0)"><g transform="scale(1)"><g><path d="M39.73 3.65L39.73 3.65Q41.48 4.04 42.28 3.08L42.28 3.08Q42.67 2.64 42.56 1.98 42.45 1.32 41.7-0.44L41.7-0.44Q41.35-1.45 41.55-3.12 41.75-4.79 41.99-6.5 42.23-8.22 42.06-8.31L42.06-8.31Q41.92-8.39 41.75-8.31 41.57-8.22 41.57-8.09L41.57-8.09Q41.57-7.69 40.58-5.52 39.59-3.34 39.33-3.12L39.33-3.12Q38.63-2.5 37.31-3.69 35.99-4.88 34.58-7.29 33.18-9.71 32.3-12.44L32.3-12.44Q30.5-17.8 30.28-22.94L30.28-22.94Q30.28-23.12 30.23-23.38L30.23-23.38Q30.19-24.35 30.59-24.52L30.59-24.52Q31.11-24.79 35.24-24.83L35.24-24.83Q35.99-24.83 36.39-24.83L36.39-24.83Q41.75-24.87 42.28-25.31L42.28-25.31Q42.76-25.71 41-27.2L41-27.2Q40.56-27.55 39.68-28.26L39.68-28.26Q38.63-29.09 38.5-29.38 38.36-29.66 38.8-30.1L38.8-30.1Q40.25-31.64 38.87-33.4 37.49-35.16 34.32-35.73L34.32-35.73Q31.51-36.25 32.08-35.51L32.08-35.51Q32.17-35.42 32.34-35.29L32.34-35.29Q34.72-33.31 35.82-31.03L35.82-31.03Q36.3-30.1 36.74-29.88L36.74-29.88Q37.27-29.62 37.22-29.27 37.18-28.92 36.52-27.95L36.52-27.95Q35.51-26.54 35.05-26.32 34.58-26.1 32.61-26.1L32.61-26.1Q30.59-26.15 30.28-26.48 29.97-26.81 29.88-29.14L29.88-29.14Q29.58-35.73 30.41-36.3L30.41-36.3Q31.38-36.91 29.93-37.27L29.93-37.27Q29.44-37.35 28.52-37.49L28.52-37.49Q26.54-37.75 26.15-37.49L26.15-37.49Q25.53-37.09 25.58-34.19L25.58-34.19Q25.58-33.57 25.75-29.84L25.75-29.84Q25.84-27.42 25.77-26.92 25.71-26.41 25.27-26.19L25.27-26.19Q25.09-26.1 14.96-26.13 4.83-26.15 3.65-26.28L3.65-26.28Q2.64-26.37 2.55-26.28 2.46-26.19 2.9-25.36L2.9-25.36Q3.34-24.43 3.52-24.32 3.69-24.21 4.79-24.39L4.79-24.39Q7.65-24.79 16.48-24.79L16.48-24.79Q17.67-24.79 19.64-24.83L19.64-24.83Q24.74-24.87 25.49-24.52L25.49-24.52Q26.15-24.26 26.24-23.03L26.24-23.03Q26.24-22.94 26.28-22.68L26.28-22.68Q26.32-22.06 26.37-21.71L26.37-21.71Q26.59-19.73 26.94-17.67L26.94-17.67Q27.47-14.63 27.82-13.4L27.82-13.4Q28.04-12.57 28.56-10.94L28.56-10.94Q30.28-5.41 33.49-1.21 36.69 2.99 39.73 3.65ZM4.79 3.43L4.79 3.43Q5.01 3.65 5.58 3.12L5.58 3.12Q6.02 2.72 6.68 2.44 7.34 2.15 9.89 1.36L9.89 1.36Q22.72-2.68 27.07-4.48L27.07-4.48Q27.69-4.75 27.69-5.01 27.69-5.27 27.33-5.27L27.33-5.27Q26.94-5.23 23.77-4.66L23.77-4.66Q20.13-4.04 19.47-4 18.81-3.96 18.54-4.44L18.54-4.44Q18.41-4.7 18.37-8.39 18.33-12.08 18.5-12.61L18.5-12.61Q18.68-13.18 19.16-13.29 19.64-13.4 22.41-13.4L22.41-13.4Q26.24-13.4 26.65-13.89 27.07-14.37 25.05-16.3L25.05-16.3Q23.55-17.75 23.14-17.78 22.72-17.8 21.88-16.44L21.88-16.44Q21.01-15.03 20.06-14.68 19.12-14.33 18.59-15.25L18.59-15.25Q18.19-15.86 18.37-18.57 18.54-21.27 18.98-21.62L18.98-21.62Q19.78-22.15 17.75-22.9L17.75-22.9Q16.74-23.25 15.03-23.64L15.03-23.64Q14.15-23.82 14.06-23.71 13.97-23.6 14.11-22.5L14.11-22.5Q14.46-19.2 14.46-11.07L14.46-11.07Q14.46-10.42 14.46-9.27L14.46-9.27Q14.46-4.04 14.15-3.38L14.15-3.38Q13.93-2.94 12.88-2.81L12.88-2.81Q12.57-2.77 12.39-2.72L12.39-2.72Q11.07-2.5 10.85-2.68L10.85-2.68Q10.37-3.03 10.37-6.46L10.37-6.46Q10.37-6.46 10.37-9.67L10.37-9.67Q10.37-14.94 10.44-15.89 10.5-16.83 10.9-17.05L10.9-17.05Q12.26-17.89 7.34-19.03L7.34-19.03Q6.5-19.25 6.37-19.18 6.24-19.12 6.28-18.54L6.28-18.54Q6.59-16.26 6.68-9.51 6.77-2.77 6.5-2.33L6.5-2.33Q6.2-1.8 4.17-1.49L4.17-1.49Q2.59-1.23 2.55-1.19 2.5-1.14 3.56 1.03 4.61 3.21 4.79 3.43ZM7.43-31.25L7.43-31.25Q7.6-30.98 8.53-31.16L8.53-31.16Q11.03-31.55 17.49-31.6L17.49-31.6Q23.64-31.64 24.04-31.9L24.04-31.9Q24.21-31.99 24.21-32.39 24.21-32.78 22.43-34.39 20.65-35.99 20.21-35.99L20.21-35.99Q20-35.99 19.71-35.71 19.42-35.42 18.72-34.41L18.72-34.41Q17.89-33.22 17.47-33.07 17.05-32.92 14.85-32.87L14.85-32.87Q9.84-32.87 7.47-33.13L7.47-33.13Q6.68-33.22 6.68-32.78L6.68-32.78Q6.68-32.39 7.43-31.25ZM52.87 3.69L52.87 3.69Q53.39 3.82 54.07 3.6 54.76 3.38 55.2 2.94L55.2 2.94Q57.13 1.01 55.46-4.75L55.46-4.75Q54.62-7.78 55.26-10.72 55.9-13.67 60.34-27.33L60.34-27.33Q61.13-29.97 61.04-30.06L61.04-30.06Q60.78-30.32 60.69-30.23L60.69-30.23Q60.38-29.93 57.61-23.51L57.61-23.51Q57.3-22.85 56.78-21.58L56.78-21.58Q52.38-11.34 51.59-10.15L51.59-10.15Q51.02-9.32 50.19-9.36L50.19-9.36Q50.14-9.36 50.05-9.36L50.05-9.36Q49.83-9.36 49.75-9.36L49.75-9.36Q48.56-9.36 48.52-8.88L48.52-8.88Q48.52-8.53 49.31-8.35L49.31-8.35Q50.84-8.04 51.35-6.31 51.86-4.57 51.5-0.83L51.5-0.83Q51.24 1.76 51.42 2.2L51.42 2.2Q51.86 3.47 52.87 3.69ZM58.1 3.52L58.1 3.52Q58.23 3.69 58.43 3.65 58.62 3.6 59.77 3.12L59.77 3.12Q66.27 0.31 71.46-4.53L71.46-4.53Q72.82-5.8 73.28-5.82 73.74-5.84 74.66-4.66L74.66-4.66Q77.96-0.48 82.49 2.68L82.49 2.68Q83.36 3.34 83.56 3.38 83.76 3.43 84.02 3.03L84.02 3.03Q84.59 2.07 85.63 1.36 86.66 0.66 87.67 0.53L87.67 0.53Q88.02 0.48 88.2 0.4 88.37 0.31 88.33 0.13L88.33 0.13Q88.33 0.04 87.32-0.44L87.32-0.44Q82-3.16 77.65-7.43L77.65-7.43Q76.29-8.75 76.22-9.32 76.16-9.89 77.17-11.43L77.17-11.43Q81.74-18.46 84.29-28.43L84.29-28.43Q84.73-30.1 84.99-30.56 85.25-31.03 85.87-31.25L85.87-31.25Q86.92-31.55 86.31-32.48L86.31-32.48Q85.91-33 84.73-34.15L84.73-34.15Q83.32-35.46 82.97-35.51 82.62-35.55 81.65-34.54L81.65-34.54Q81.52-34.41 81.3-34.15L81.3-34.15Q80.68-33.44 79.94-33.33 79.19-33.22 74.71-33.27L74.71-33.27Q72.64-33.27 71.32-33.27L71.32-33.27Q62.67-33.27 61.61-33.4L61.61-33.4Q60.6-33.49 60.49-33.35 60.38-33.22 60.86-32.34L60.86-32.34Q61.26-31.55 61.44-31.46 61.61-31.38 62.27-31.68L62.27-31.68Q63.11-31.99 63.9-31.82 64.69-31.64 64.78-31.11L64.78-31.11Q64.78-31.07 64.82-30.76 64.86-30.45 64.95-29.93 65.04-29.4 65.08-28.96L65.08-28.96Q66.67-19.07 70.27-11.56L70.27-11.56Q71.24-9.67 71.19-9.12 71.15-8.57 70-7.12L70-7.12Q65.35-1.41 59.55 2.24L59.55 2.24Q58.01 3.16 58.01 3.34L58.01 3.34Q58.01 3.43 58.1 3.52ZM74.14-13.32L74.14-13.32Q73.17-12.17 70.88-16.17L70.88-16.17Q67.85-21.49 66.09-28.78L66.09-28.78Q65.92-29.49 65.79-30.15L65.79-30.15Q65.74-30.28 65.7-30.5L65.7-30.5Q65.48-31.42 65.87-31.64L65.87-31.64Q66.45-31.9 71.41-31.95L71.41-31.95Q72.33-31.95 72.86-31.95L72.86-31.95Q79.5-31.95 80.11-31.73L80.11-31.73Q80.51-31.55 80.46-30.89L80.46-30.89Q80.42-30.72 80.42-30.63L80.42-30.63Q80.24-28.04 77.87-21.47 75.5-14.9 74.14-13.32ZM52.34-20.57L52.34-20.57Q53.53-20.04 54.4-20.65 55.28-21.27 55.24-22.63L55.24-22.63Q55.15-24.26 53.44-25.44 51.72-26.63 48.82-27.11L48.82-27.11Q47.77-27.29 47.66-27.14 47.55-26.98 48.21-26.32L48.21-26.32Q51.02-23.51 51.77-21.09L51.77-21.09Q51.86-20.79 52.34-20.57ZM55.94-30.28L55.94-30.28Q57.22-29.66 58.23-30.5 59.24-31.33 58.93-32.78L58.93-32.78Q58.58-34.41 56.84-35.6 55.11-36.78 52.34-37.22L52.34-37.22Q51.24-37.44 51.11-37.27 50.98-37.09 51.68-36.34L51.68-36.34Q52.87-35.16 53.94-33.55 55.02-31.95 55.37-30.81L55.37-30.81Q55.46-30.5 55.94-30.28ZM94.31 3.6L94.31 3.6 94.44 3.69Q94.61 3.69 100.15 2.9L100.15 2.9Q110.26 1.19 117.22-2.64 124.19-6.46 128.8-12.83L128.8-12.83Q130.12-14.68 131.09-14.68L131.09-14.68Q133.2-14.68 130.17-17.36L130.17-17.36Q130.03-17.49 129.81-17.67L129.81-17.67Q128.36-18.94 127.97-18.94L127.97-18.94Q127.62-18.94 126.74-18.06L126.74-18.06 126.65-17.97Q125.55-16.92 125.02-16.79 124.5-16.66 121.29-16.66L121.29-16.66Q117.42-16.66 117.2-16.96L117.2-16.96Q117.07-17.09 117.25-17.49L117.25-17.49Q117.47-17.93 118.87-19.14 120.28-20.35 120.67-20.39L120.67-20.39Q122.39-20.74 120.81-21.31L120.81-21.31Q120.01-21.62 118.26-22.06L118.26-22.06Q117.55-22.24 117.27-22.41 116.98-22.59 117.03-22.87 117.07-23.16 117.47-23.53 117.86-23.91 118.74-24.61L118.74-24.61Q121.29-26.67 123.35-28.96L123.35-28.96Q124.41-30.1 124.72-30.34 125.02-30.59 125.73-30.72L125.73-30.72Q126.43-30.89 126.63-31.07 126.83-31.25 126.63-31.57 126.43-31.9 125.73-32.65L125.73-32.65Q123.75-34.63 123.11-34.83 122.48-35.02 121.42-34.01L121.42-34.01Q120.45-33 119.9-32.87 119.36-32.74 116.19-32.74L116.19-32.74Q114.65-32.74 113.93-32.76 113.2-32.78 112.72-32.85 112.24-32.92 112.26-33.07 112.28-33.22 112.28-33.44L112.28-33.44Q112.41-33.88 113.51-34.78 114.61-35.68 115.18-35.82L115.18-35.82Q116.67-36.17 114.52-37L114.52-37Q113.42-37.44 111.18-38.14L111.18-38.14Q110.43-38.36 110.19-38.39 109.95-38.41 109.84-38.34 109.73-38.28 109.56-37.92L109.56-37.92Q108.02-34.89 103.89-31.22 99.76-27.55 95.1-25.05L95.1-25.05Q94.31-24.65 94.15-24.5 94-24.35 94.17-24.13L94.17-24.13Q94.39-23.95 96.7-24.79 99.01-25.62 101.38-26.72L101.38-26.72Q103.4-27.69 103.89-27.55L103.89-27.55Q104.55-27.33 105.97-26.08 107.4-24.83 108.15-23.73L108.15-23.73Q108.54-23.2 108.81-23.12L108.81-23.12Q110.13-22.68 108.59-21.62L108.59-21.62Q108.33-21.45 107.97-21.23L107.97-21.23Q102.83-18.24 95.58-15.82L95.58-15.82Q93.74-15.21 93.41-15.05 93.08-14.9 93.12-14.72L93.12-14.72Q93.21-14.46 93.58-14.48 93.96-14.5 96.28-14.94L96.28-14.94Q103.89-16.48 111.14-19.78L111.14-19.78Q113.73-21.01 113.73-20.48L113.73-20.48Q113.69-20 111.84-18.15L111.84-18.15Q106.22-12.52 98.39-8.66L98.39-8.66Q96.33-7.6 96.28-7.34L96.28-7.34Q96.28-7.25 96.5-7.16L96.5-7.16Q96.86-7.03 100.02-8.15 103.18-9.27 105.47-10.37L105.47-10.37Q107.05-11.12 107.73-10.9 108.41-10.68 110.04-9.05L110.04-9.05Q111.53-7.56 112.37-6.02L112.37-6.02Q112.63-5.45 113.07-5.27L113.07-5.27Q114.21-4.66 112.72-3.78L112.72-3.78Q110.21-2.15 105.38-0.33 100.55 1.49 95.76 2.64L95.76 2.64Q94.04 3.03 94.09 3.34L94.09 3.34Q94.09 3.47 94.31 3.6ZM116.98-6.68L116.98-6.68Q116.41-6.28 116.13-6.46 115.84-6.64 115.8-7.43L115.8-7.43Q115.66-10.02 111.67-11.51L111.67-11.51Q110.13-12.04 110.24-12.48 110.35-12.92 112.28-14.15L112.28-14.15Q113.95-15.21 114.5-15.31 115.05-15.42 119.09-15.47L119.09-15.47Q122.74-15.47 123.4-15.42 124.06-15.38 124.23-15.07L124.23-15.07Q124.67-14.46 121.9-11.25 119.14-8.04 116.98-6.68ZM112.46-24.3L112.46-24.3Q111.8-23.86 111.53-23.95 111.27-24.04 111.23-24.79L111.23-24.79Q111.01-27.2 107.89-28.21L107.89-28.21Q106.88-28.56 106.63-28.81 106.39-29.05 106.66-29.4 106.92-29.75 107.93-30.41L107.93-30.41Q109.2-31.29 109.75-31.38 110.3-31.46 113.91-31.51L113.91-31.51Q118.43-31.51 118.78-31.2L118.78-31.2Q118.92-31.07 118.83-30.63L118.83-30.63Q118.74-30.01 116.35-27.64 113.95-25.27 112.46-24.3ZM159.65 3.25L159.65 3.25Q160.09 3.69 161.46 3.36 162.82 3.03 163.43 2.37L163.43 2.37Q163.65 2.07 163.61 1.1L163.61 1.1Q163.56-0.35 164.03-0.57 164.49-0.79 167.52-0.79 170.55-0.79 171.01-0.55 171.47-0.31 171.39 1.32L171.39 1.32Q171.34 2.64 171.83 2.86 172.31 3.08 173.98 2.55L173.98 2.55Q175.34 2.07 175.56 1.69 175.78 1.32 175.69-0.31L175.69-0.31Q175.61-2.59 175.56-7.43 175.52-12.26 175.61-12.61L175.61-12.61Q175.78-13.23 176.44-13.58L176.44-13.58Q177.28-13.97 177.12-14.37 176.97-14.77 175.69-15.82L175.69-15.82Q173.94-17.27 173.47-17.38 173.01-17.49 172.09-16.57L172.09-16.57Q171.17-15.6 170.77-15.47L170.77-15.47Q170.29-15.29 167.21-15.29L167.21-15.29Q164.36-15.29 163.78-15.4 163.21-15.51 161.06-16.44L161.06-16.44Q159.43-17.09 159.3-17.09L159.3-17.09Q159.21-17.05 159.21-16.81 159.21-16.57 159.43-14.37L159.43-14.37Q159.65-12.08 159.65-6.57 159.65-1.05 159.43 2.15L159.43 2.15Q159.35 2.99 159.65 3.25ZM170.82-2.24L170.82-2.24Q170.46-2.07 167.52-2.04 164.58-2.02 164.22-2.2L164.22-2.2Q163.74-2.42 163.65-3.16 163.56-3.91 163.56-8.04L163.56-8.04Q163.56-8.66 163.56-9.71L163.56-9.71Q163.52-13.01 163.87-13.54L163.87-13.54Q164.22-14.06 165.94-14.02L165.94-14.02Q166.07-14.02 166.38-14.02L166.38-14.02Q167.08-14.02 167.52-14.02L167.52-14.02Q170.29-14.02 170.55-13.93L170.55-13.93Q171.34-13.67 171.43-12.17L171.43-12.17Q171.43-11.91 171.43-8.04L171.43-8.04Q171.43-3.87 171.36-3.16 171.3-2.46 170.82-2.24ZM139.66 3.16L139.66 3.16Q140.49 4 142.12 3.19 143.75 2.37 143.7 1.14L143.7 1.14Q143.61-0.26 144.07-0.53 144.54-0.79 147.35-0.79L147.35-0.79Q150.29-0.79 150.73-0.57 151.17-0.35 151.08 1.1L151.08 1.1Q151 2.46 151.72 2.66 152.45 2.86 154.2 1.98L154.2 1.98Q155.17 1.54 155.26 1.16 155.35 0.79 155.26-1.89L155.26-1.89Q155-9.01 155.15-11.12 155.3-13.23 156.14-13.67L156.14-13.67Q157.02-14.15 156.53-14.72L156.53-14.72Q156.05-15.34 154.58-16.39 153.11-17.45 152.75-17.45L152.75-17.45Q152.49-17.45 151.52-16.35L151.52-16.35Q150.82-15.51 150.31-15.4 149.81-15.29 147.08-15.29 144.36-15.29 143.79-15.4 143.22-15.51 141.28-16.35L141.28-16.35Q140.89-16.48 140.36-16.7 139.83-16.92 139.59-17.01 139.35-17.09 139.31-17.09L139.31-17.09Q139.22-17.05 139.22-16.81 139.22-16.57 139.44-14.37L139.44-14.37Q139.66-12.08 139.66-6.61 139.66-1.14 139.44 2.07L139.44 2.07Q139.35 2.9 139.66 3.16ZM150.51-2.2L150.51-2.2Q150.16-2.02 147.39-2.04 144.62-2.07 144.27-2.24L144.27-2.24Q143.79-2.46 143.72-3.16 143.66-3.87 143.66-8.04L143.66-8.04Q143.66-8.61 143.66-9.62L143.66-9.62Q143.61-12.96 143.94-13.51 144.27-14.06 146.34-14.02L146.34-14.02Q147-14.02 147.39-14.02L147.39-14.02Q150.03-14.02 150.34-13.93L150.34-13.93Q151.08-13.67 151.17-12.13L151.17-12.13Q151.17-11.82 151.17-8.04L151.17-8.04Q151.17-3.91 151.08-3.16 151-2.42 150.51-2.2ZM146.51-18.5L146.51-18.5Q146.95-18.11 148.25-18.39 149.55-18.68 150.34-19.34L150.34-19.34Q150.64-19.6 150.64-20.43L150.64-20.43Q150.64-21.53 150.86-21.71L150.86-21.71Q151.26-22.06 155.13-22.06L155.13-22.06Q155.3-22.06 156.49-22.06L156.49-22.06Q157.1-22.06 157.54-22.06L157.54-22.06Q157.98-22.06 158.77-22.06L158.77-22.06Q163.13-22.06 163.83-21.86 164.53-21.67 164.44-20.43L164.44-20.43Q164.4-20.21 164.4-20.08L164.4-20.08Q164.31-18.9 164.75-18.65 165.19-18.41 166.68-18.85L166.68-18.85Q168.13-19.29 168.49-19.78 168.84-20.26 168.75-21.71L168.75-21.71Q168.66-23.64 168.62-27.8 168.57-31.95 168.66-32.3L168.66-32.3Q168.84-32.96 169.45-33.31L169.45-33.31Q170.29-33.71 170.18-34.06 170.07-34.41 168.88-35.42L168.88-35.42Q167.04-37 166.51-37.11 165.98-37.22 165.06-36.25L165.06-36.25Q164.22-35.38 163.96-35.29L163.96-35.29Q163.39-35.02 159.04-35.02L159.04-35.02Q158.03-35.02 157.24-35.02L157.24-35.02Q151.7-35.02 151-35.11 150.29-35.2 148.01-36.12L148.01-36.12Q146.34-36.87 146.16-36.8 145.99-36.74 146.12-35.6L146.12-35.6Q146.82-28.87 146.34-20.92L146.34-20.92Q146.25-19.29 146.27-19.01 146.29-18.72 146.51-18.5ZM163.87-23.47L163.87-23.47Q163.65-23.38 157.63-23.31 151.61-23.25 151.3-23.33L151.3-23.33Q150.78-23.55 150.67-24.37 150.56-25.18 150.56-28.78L150.56-28.78Q150.56-29.36 150.56-30.32L150.56-30.32Q150.51-32.96 151.11-33.38 151.7-33.79 155.35-33.75L155.35-33.75Q156.71-33.75 157.54-33.75 158.38-33.75 159.74-33.75L159.74-33.75Q163.34-33.79 163.92-33.35 164.49-32.92 164.44-30.19L164.44-30.19Q164.44-29.14 164.44-28.48L164.44-28.48Q164.44-25 164.36-24.35 164.27-23.69 163.87-23.47Z" transform="translate(-2.534716844558716, 38.39444351196289)"></path></g> <!----> <!----> <!----> <!----> <!----> <!----> <!----></g></g> <g data-gra="path-slogan" fill-rule="" class="tp-slogan iconsvg-slogansvg" fill="#333" transform="translate(40.360443115234375,48.15711212158203)"><!----> <!----> <g transform="scale(1, 1)"><g transform="scale(1)"><path d="M5.67-7.13L5.63-7.13L3.66 0L2.44 0L0.19-8.58L1.41-8.58L3.05-1.59L3.09-1.59L5.02-8.58L6.28-8.58L8.20-1.59L8.25-1.59L9.84-8.58L11.11-8.58L8.86 0L7.64 0L5.67-7.13ZM17.86-3.19L17.86-8.58L19.03-8.58L19.03-3.05Q18.89 0.05 15.52 0.14L15.52 0.14Q12.38 0.05 12.23-2.86L12.23-2.86L12.23-8.58L13.41-8.58L13.41-3.19Q13.45-0.84 15.56-0.80L15.56-0.80Q17.86-0.84 17.86-3.19L17.86-3.19ZM21.98-5.06L26.48-5.06L26.48-8.58L27.66-8.58L27.66 0L26.48 0L26.48-3.98L21.98-3.98L21.98 0L20.81 0L20.81-8.58L21.98-8.58L21.98-5.06ZM35.11 0L34.27-2.48L30.80-2.48L29.91 0L28.73 0L31.97-8.58L33.28-8.58L36.38 0L35.11 0ZM32.53-7.31L31.17-3.52L33.84-3.52L32.58-7.31L32.53-7.31ZM38.81-8.58L43.13-1.64L43.13-8.58L44.25-8.58L44.25 0L42.94 0L38.58-6.94L38.53-6.94L38.53 0L37.41 0L37.41-8.58L38.81-8.58ZM52.88 0L49.41 0L49.41-8.58L52.92-8.58Q56.39-8.39 56.53-4.41L56.53-4.41Q56.34-0.09 52.88 0L52.88 0ZM52.73-7.64L50.58-7.64L50.58-0.98L52.83-0.98Q55.27-1.13 55.36-4.31L55.36-4.31Q55.31-7.55 52.73-7.64L52.73-7.64ZM63.66-3.19L63.66-8.58L64.83-8.58L64.83-3.05Q64.69 0.05 61.31 0.14L61.31 0.14Q58.17 0.05 58.03-2.86L58.03-2.86L58.03-8.58L59.20-8.58L59.20-3.19Q59.25-0.84 61.36-0.80L61.36-0.80Q63.66-0.84 63.66-3.19L63.66-3.19ZM73.41-4.27L73.41-4.27Q73.22-7.64 70.41-7.83L70.41-7.83Q67.55-7.69 67.41-4.27L67.41-4.27Q67.55-0.94 70.41-0.80L70.41-0.80Q73.22-0.98 73.41-4.27ZM74.58-4.27L74.58-4.27Q74.30 0 70.41 0.14L70.41 0.14Q66.47 0 66.19-4.27L66.19-4.27Q66.42-8.72 70.41-8.81L70.41-8.81Q74.30-8.67 74.58-4.27ZM79.59-7.64L77.25-7.64L77.25-4.64L79.55-4.64Q81.33-4.64 81.33-6.19L81.33-6.19Q81.33-7.59 79.59-7.64L79.59-7.64ZM79.97-3.61L77.25-3.61L77.25 0L76.08 0L76.08-8.58L79.97-8.58Q82.41-8.48 82.50-6.19L82.50-6.19Q82.36-3.70 79.97-3.61L79.97-3.61ZM84.09-8.58L85.27-8.58L85.27 0L84.09 0L84.09-8.58ZM88.64-8.58L92.95-1.64L92.95-8.58L94.08-8.58L94.08 0L92.77 0L88.41-6.94L88.36-6.94L88.36 0L87.23 0L87.23-8.58L88.64-8.58Z" transform="translate(-0.1875, 8.8125)"></path></g></g></g></g></g><defs v-gra="od"></defs></svg>